<mxfile host="app.diagrams.net" modified="2022-11-24T01:17:24.583Z" agent="5.0 (Windows NT 10.0; Win64; x64) AppleWebKit/537.36 (KHTML, like Gecko) Chrome/107.0.0.0 Safari/537.36" etag="0wGfHYTNQkQ6asp9_LfW" version="20.6.0" type="github">
  <diagram id="C5RBs43oDa-KdzZeNtuy" name="Page-1">
    <mxGraphModel dx="2249" dy="730" grid="1" gridSize="10" guides="1" tooltips="1" connect="1" arrows="1" fold="1" page="1" pageScale="1" pageWidth="827" pageHeight="1169" background="#ffffff" math="0" shadow="0">
      <root>
        <mxCell id="WIyWlLk6GJQsqaUBKTNV-0" />
        <mxCell id="WIyWlLk6GJQsqaUBKTNV-1" parent="WIyWlLk6GJQsqaUBKTNV-0" />
        <mxCell id="D7KvzW-JwfMgH3qvJDAS-5" style="edgeStyle=orthogonalEdgeStyle;rounded=0;orthogonalLoop=1;jettySize=auto;html=1;exitX=0.5;exitY=1;exitDx=0;exitDy=0;entryX=0.5;entryY=0;entryDx=0;entryDy=0;" parent="WIyWlLk6GJQsqaUBKTNV-1" source="D7KvzW-JwfMgH3qvJDAS-2" target="D7KvzW-JwfMgH3qvJDAS-3" edge="1">
          <mxGeometry relative="1" as="geometry" />
        </mxCell>
        <mxCell id="D7KvzW-JwfMgH3qvJDAS-2" value="互动课堂" style="ellipse;whiteSpace=wrap;html=1;aspect=fixed;" parent="WIyWlLk6GJQsqaUBKTNV-1" vertex="1">
          <mxGeometry x="130" y="60" width="80" height="80" as="geometry" />
        </mxCell>
        <mxCell id="D7KvzW-JwfMgH3qvJDAS-6" style="edgeStyle=orthogonalEdgeStyle;rounded=0;orthogonalLoop=1;jettySize=auto;html=1;exitX=0.5;exitY=1;exitDx=0;exitDy=0;entryX=0.5;entryY=0;entryDx=0;entryDy=0;" parent="WIyWlLk6GJQsqaUBKTNV-1" source="D7KvzW-JwfMgH3qvJDAS-3" target="D7KvzW-JwfMgH3qvJDAS-4" edge="1">
          <mxGeometry relative="1" as="geometry" />
        </mxCell>
        <mxCell id="D7KvzW-JwfMgH3qvJDAS-9" value="" style="edgeStyle=orthogonalEdgeStyle;rounded=0;orthogonalLoop=1;jettySize=auto;html=1;" parent="WIyWlLk6GJQsqaUBKTNV-1" source="D7KvzW-JwfMgH3qvJDAS-3" target="D7KvzW-JwfMgH3qvJDAS-8" edge="1">
          <mxGeometry relative="1" as="geometry" />
        </mxCell>
        <mxCell id="D7KvzW-JwfMgH3qvJDAS-3" value="是否已选班级" style="rhombus;whiteSpace=wrap;html=1;" parent="WIyWlLk6GJQsqaUBKTNV-1" vertex="1">
          <mxGeometry x="100" y="180" width="140" height="80" as="geometry" />
        </mxCell>
        <mxCell id="D7KvzW-JwfMgH3qvJDAS-16" value="" style="edgeStyle=orthogonalEdgeStyle;rounded=0;orthogonalLoop=1;jettySize=auto;html=1;" parent="WIyWlLk6GJQsqaUBKTNV-1" source="D7KvzW-JwfMgH3qvJDAS-4" target="D7KvzW-JwfMgH3qvJDAS-15" edge="1">
          <mxGeometry relative="1" as="geometry" />
        </mxCell>
        <mxCell id="D7KvzW-JwfMgH3qvJDAS-18" value="" style="edgeStyle=orthogonalEdgeStyle;rounded=0;orthogonalLoop=1;jettySize=auto;html=1;" parent="WIyWlLk6GJQsqaUBKTNV-1" source="D7KvzW-JwfMgH3qvJDAS-4" target="D7KvzW-JwfMgH3qvJDAS-15" edge="1">
          <mxGeometry relative="1" as="geometry" />
        </mxCell>
        <mxCell id="D7KvzW-JwfMgH3qvJDAS-22" value="" style="edgeStyle=orthogonalEdgeStyle;rounded=0;orthogonalLoop=1;jettySize=auto;html=1;" parent="WIyWlLk6GJQsqaUBKTNV-1" source="D7KvzW-JwfMgH3qvJDAS-4" target="D7KvzW-JwfMgH3qvJDAS-21" edge="1">
          <mxGeometry relative="1" as="geometry" />
        </mxCell>
        <mxCell id="D7KvzW-JwfMgH3qvJDAS-4" value="是否今日有授课" style="rhombus;whiteSpace=wrap;html=1;" parent="WIyWlLk6GJQsqaUBKTNV-1" vertex="1">
          <mxGeometry x="100" y="300" width="140" height="80" as="geometry" />
        </mxCell>
        <mxCell id="D7KvzW-JwfMgH3qvJDAS-7" value="Y" style="text;html=1;align=center;verticalAlign=middle;resizable=0;points=[];autosize=1;strokeColor=none;fillColor=none;" parent="WIyWlLk6GJQsqaUBKTNV-1" vertex="1">
          <mxGeometry x="145" y="265" width="30" height="30" as="geometry" />
        </mxCell>
        <mxCell id="D7KvzW-JwfMgH3qvJDAS-12" style="edgeStyle=orthogonalEdgeStyle;rounded=0;orthogonalLoop=1;jettySize=auto;html=1;exitX=0.5;exitY=1;exitDx=0;exitDy=0;entryX=1;entryY=0.5;entryDx=0;entryDy=0;" parent="WIyWlLk6GJQsqaUBKTNV-1" source="D7KvzW-JwfMgH3qvJDAS-8" target="D7KvzW-JwfMgH3qvJDAS-4" edge="1">
          <mxGeometry relative="1" as="geometry" />
        </mxCell>
        <mxCell id="D7KvzW-JwfMgH3qvJDAS-8" value="选择班级" style="whiteSpace=wrap;html=1;" parent="WIyWlLk6GJQsqaUBKTNV-1" vertex="1">
          <mxGeometry x="330" y="190" width="120" height="60" as="geometry" />
        </mxCell>
        <mxCell id="D7KvzW-JwfMgH3qvJDAS-76" style="edgeStyle=orthogonalEdgeStyle;rounded=0;orthogonalLoop=1;jettySize=auto;html=1;entryX=0.5;entryY=0;entryDx=0;entryDy=0;" parent="WIyWlLk6GJQsqaUBKTNV-1" source="D7KvzW-JwfMgH3qvJDAS-15" target="D7KvzW-JwfMgH3qvJDAS-32" edge="1">
          <mxGeometry relative="1" as="geometry" />
        </mxCell>
        <mxCell id="D7KvzW-JwfMgH3qvJDAS-15" value="互动主页" style="whiteSpace=wrap;html=1;" parent="WIyWlLk6GJQsqaUBKTNV-1" vertex="1">
          <mxGeometry x="110" y="440" width="120" height="60" as="geometry" />
        </mxCell>
        <mxCell id="D7KvzW-JwfMgH3qvJDAS-19" value="Y" style="text;html=1;align=center;verticalAlign=middle;resizable=0;points=[];autosize=1;strokeColor=none;fillColor=none;" parent="WIyWlLk6GJQsqaUBKTNV-1" vertex="1">
          <mxGeometry x="145" y="390" width="30" height="30" as="geometry" />
        </mxCell>
        <mxCell id="D7KvzW-JwfMgH3qvJDAS-20" value="N" style="text;html=1;align=center;verticalAlign=middle;resizable=0;points=[];autosize=1;strokeColor=none;fillColor=none;" parent="WIyWlLk6GJQsqaUBKTNV-1" vertex="1">
          <mxGeometry x="260" y="190" width="30" height="30" as="geometry" />
        </mxCell>
        <mxCell id="D7KvzW-JwfMgH3qvJDAS-65" style="edgeStyle=orthogonalEdgeStyle;rounded=0;orthogonalLoop=1;jettySize=auto;html=1;exitX=0.5;exitY=1;exitDx=0;exitDy=0;entryX=0.008;entryY=0.367;entryDx=0;entryDy=0;entryPerimeter=0;" parent="WIyWlLk6GJQsqaUBKTNV-1" source="D7KvzW-JwfMgH3qvJDAS-21" target="D7KvzW-JwfMgH3qvJDAS-15" edge="1">
          <mxGeometry relative="1" as="geometry" />
        </mxCell>
        <mxCell id="D7KvzW-JwfMgH3qvJDAS-21" value="开始上课" style="whiteSpace=wrap;html=1;" parent="WIyWlLk6GJQsqaUBKTNV-1" vertex="1">
          <mxGeometry x="-110" y="310" width="120" height="60" as="geometry" />
        </mxCell>
        <mxCell id="D7KvzW-JwfMgH3qvJDAS-23" value="N" style="text;html=1;align=center;verticalAlign=middle;resizable=0;points=[];autosize=1;strokeColor=none;fillColor=none;" parent="WIyWlLk6GJQsqaUBKTNV-1" vertex="1">
          <mxGeometry x="35" y="315" width="30" height="30" as="geometry" />
        </mxCell>
        <mxCell id="D7KvzW-JwfMgH3qvJDAS-26" style="edgeStyle=orthogonalEdgeStyle;rounded=0;orthogonalLoop=1;jettySize=auto;html=1;exitX=0.5;exitY=1;exitDx=0;exitDy=0;entryX=0.5;entryY=0;entryDx=0;entryDy=0;" parent="WIyWlLk6GJQsqaUBKTNV-1" source="D7KvzW-JwfMgH3qvJDAS-15" target="D7KvzW-JwfMgH3qvJDAS-31" edge="1">
          <mxGeometry relative="1" as="geometry">
            <mxPoint x="170" y="610" as="sourcePoint" />
          </mxGeometry>
        </mxCell>
        <mxCell id="D7KvzW-JwfMgH3qvJDAS-27" style="edgeStyle=orthogonalEdgeStyle;rounded=0;orthogonalLoop=1;jettySize=auto;html=1;entryX=0.5;entryY=0;entryDx=0;entryDy=0;exitX=0;exitY=0.75;exitDx=0;exitDy=0;" parent="WIyWlLk6GJQsqaUBKTNV-1" source="D7KvzW-JwfMgH3qvJDAS-15" target="D7KvzW-JwfMgH3qvJDAS-30" edge="1">
          <mxGeometry relative="1" as="geometry">
            <mxPoint x="141.71572875253787" y="598.2842712474621" as="sourcePoint" />
            <Array as="points">
              <mxPoint x="110" y="480" />
              <mxPoint x="40" y="480" />
            </Array>
          </mxGeometry>
        </mxCell>
        <mxCell id="D7KvzW-JwfMgH3qvJDAS-30" value="到勤" style="whiteSpace=wrap;html=1;aspect=fixed;" parent="WIyWlLk6GJQsqaUBKTNV-1" vertex="1">
          <mxGeometry y="580" width="80" height="80" as="geometry" />
        </mxCell>
        <mxCell id="D7KvzW-JwfMgH3qvJDAS-31" value="课堂表现" style="whiteSpace=wrap;html=1;aspect=fixed;" parent="WIyWlLk6GJQsqaUBKTNV-1" vertex="1">
          <mxGeometry x="130" y="580" width="80" height="80" as="geometry" />
        </mxCell>
        <mxCell id="D7KvzW-JwfMgH3qvJDAS-46" style="edgeStyle=orthogonalEdgeStyle;rounded=0;orthogonalLoop=1;jettySize=auto;html=1;exitX=0;exitY=0.75;exitDx=0;exitDy=0;entryX=0.5;entryY=0;entryDx=0;entryDy=0;" parent="WIyWlLk6GJQsqaUBKTNV-1" source="D7KvzW-JwfMgH3qvJDAS-32" target="D7KvzW-JwfMgH3qvJDAS-35" edge="1">
          <mxGeometry relative="1" as="geometry" />
        </mxCell>
        <mxCell id="D7KvzW-JwfMgH3qvJDAS-47" style="edgeStyle=orthogonalEdgeStyle;rounded=0;orthogonalLoop=1;jettySize=auto;html=1;exitX=0;exitY=1;exitDx=0;exitDy=0;entryX=0.5;entryY=0;entryDx=0;entryDy=0;" parent="WIyWlLk6GJQsqaUBKTNV-1" source="D7KvzW-JwfMgH3qvJDAS-32" target="D7KvzW-JwfMgH3qvJDAS-41" edge="1">
          <mxGeometry relative="1" as="geometry" />
        </mxCell>
        <mxCell id="D7KvzW-JwfMgH3qvJDAS-52" style="edgeStyle=orthogonalEdgeStyle;rounded=0;orthogonalLoop=1;jettySize=auto;html=1;exitX=0.75;exitY=1;exitDx=0;exitDy=0;entryX=0.25;entryY=0;entryDx=0;entryDy=0;" parent="WIyWlLk6GJQsqaUBKTNV-1" source="D7KvzW-JwfMgH3qvJDAS-32" target="D7KvzW-JwfMgH3qvJDAS-38" edge="1">
          <mxGeometry relative="1" as="geometry" />
        </mxCell>
        <mxCell id="D7KvzW-JwfMgH3qvJDAS-53" style="edgeStyle=orthogonalEdgeStyle;rounded=0;orthogonalLoop=1;jettySize=auto;html=1;exitX=1;exitY=0.75;exitDx=0;exitDy=0;entryX=0.5;entryY=0;entryDx=0;entryDy=0;" parent="WIyWlLk6GJQsqaUBKTNV-1" source="D7KvzW-JwfMgH3qvJDAS-32" target="D7KvzW-JwfMgH3qvJDAS-39" edge="1">
          <mxGeometry relative="1" as="geometry" />
        </mxCell>
        <mxCell id="D7KvzW-JwfMgH3qvJDAS-54" style="edgeStyle=orthogonalEdgeStyle;rounded=0;orthogonalLoop=1;jettySize=auto;html=1;exitX=1;exitY=0.5;exitDx=0;exitDy=0;entryX=0.5;entryY=0;entryDx=0;entryDy=0;" parent="WIyWlLk6GJQsqaUBKTNV-1" source="D7KvzW-JwfMgH3qvJDAS-32" target="D7KvzW-JwfMgH3qvJDAS-40" edge="1">
          <mxGeometry relative="1" as="geometry" />
        </mxCell>
        <mxCell id="D7KvzW-JwfMgH3qvJDAS-84" style="edgeStyle=orthogonalEdgeStyle;rounded=0;orthogonalLoop=1;jettySize=auto;html=1;exitX=0.25;exitY=1;exitDx=0;exitDy=0;entryX=0.5;entryY=0;entryDx=0;entryDy=0;" parent="WIyWlLk6GJQsqaUBKTNV-1" source="D7KvzW-JwfMgH3qvJDAS-32" target="D7KvzW-JwfMgH3qvJDAS-36" edge="1">
          <mxGeometry relative="1" as="geometry" />
        </mxCell>
        <mxCell id="D7KvzW-JwfMgH3qvJDAS-86" style="edgeStyle=orthogonalEdgeStyle;rounded=0;orthogonalLoop=1;jettySize=auto;html=1;exitX=0.5;exitY=1;exitDx=0;exitDy=0;" parent="WIyWlLk6GJQsqaUBKTNV-1" source="D7KvzW-JwfMgH3qvJDAS-32" target="D7KvzW-JwfMgH3qvJDAS-37" edge="1">
          <mxGeometry relative="1" as="geometry" />
        </mxCell>
        <mxCell id="D7KvzW-JwfMgH3qvJDAS-32" value="课堂活动" style="whiteSpace=wrap;html=1;aspect=fixed;" parent="WIyWlLk6GJQsqaUBKTNV-1" vertex="1">
          <mxGeometry x="487.5" y="580" width="80" height="80" as="geometry" />
        </mxCell>
        <mxCell id="D7KvzW-JwfMgH3qvJDAS-62" style="edgeStyle=orthogonalEdgeStyle;rounded=0;orthogonalLoop=1;jettySize=auto;html=1;exitX=0.625;exitY=0.2;exitDx=0;exitDy=0;exitPerimeter=0;entryX=0.363;entryY=0.988;entryDx=0;entryDy=0;entryPerimeter=0;" parent="WIyWlLk6GJQsqaUBKTNV-1" source="D7KvzW-JwfMgH3qvJDAS-33" target="D7KvzW-JwfMgH3qvJDAS-30" edge="1">
          <mxGeometry relative="1" as="geometry" />
        </mxCell>
        <mxCell id="D7KvzW-JwfMgH3qvJDAS-33" value="头像上星号不显示" style="ellipse;shape=cloud;whiteSpace=wrap;html=1;" parent="WIyWlLk6GJQsqaUBKTNV-1" vertex="1">
          <mxGeometry x="-40" y="680" width="120" height="80" as="geometry" />
        </mxCell>
        <mxCell id="D7KvzW-JwfMgH3qvJDAS-63" style="edgeStyle=orthogonalEdgeStyle;rounded=0;orthogonalLoop=1;jettySize=auto;html=1;exitX=0.625;exitY=0.2;exitDx=0;exitDy=0;exitPerimeter=0;entryX=0.75;entryY=1;entryDx=0;entryDy=0;" parent="WIyWlLk6GJQsqaUBKTNV-1" source="D7KvzW-JwfMgH3qvJDAS-34" target="D7KvzW-JwfMgH3qvJDAS-31" edge="1">
          <mxGeometry relative="1" as="geometry" />
        </mxCell>
        <mxCell id="D7KvzW-JwfMgH3qvJDAS-34" value="心不显示，只显示到勤&lt;br&gt;的学生列表" style="ellipse;shape=cloud;whiteSpace=wrap;html=1;" parent="WIyWlLk6GJQsqaUBKTNV-1" vertex="1">
          <mxGeometry x="90" y="665" width="150" height="110" as="geometry" />
        </mxCell>
        <mxCell id="D7KvzW-JwfMgH3qvJDAS-35" value="趣味&lt;br&gt;答题" style="whiteSpace=wrap;html=1;aspect=fixed;" parent="WIyWlLk6GJQsqaUBKTNV-1" vertex="1">
          <mxGeometry x="305" y="770" width="50" height="50" as="geometry" />
        </mxCell>
        <mxCell id="D7KvzW-JwfMgH3qvJDAS-36" value="视唱" style="whiteSpace=wrap;html=1;aspect=fixed;" parent="WIyWlLk6GJQsqaUBKTNV-1" vertex="1">
          <mxGeometry x="430" y="770" width="50" height="50" as="geometry" />
        </mxCell>
        <mxCell id="D7KvzW-JwfMgH3qvJDAS-37" value="演唱" style="whiteSpace=wrap;html=1;aspect=fixed;" parent="WIyWlLk6GJQsqaUBKTNV-1" vertex="1">
          <mxGeometry x="500" y="770" width="50" height="50" as="geometry" />
        </mxCell>
        <mxCell id="D7KvzW-JwfMgH3qvJDAS-38" value="旋律&lt;br&gt;创编" style="whiteSpace=wrap;html=1;aspect=fixed;" parent="WIyWlLk6GJQsqaUBKTNV-1" vertex="1">
          <mxGeometry x="565" y="770" width="50" height="50" as="geometry" />
        </mxCell>
        <mxCell id="D7KvzW-JwfMgH3qvJDAS-39" value="节奏&lt;br&gt;创编" style="whiteSpace=wrap;html=1;aspect=fixed;" parent="WIyWlLk6GJQsqaUBKTNV-1" vertex="1">
          <mxGeometry x="635" y="770" width="50" height="50" as="geometry" />
        </mxCell>
        <mxCell id="D7KvzW-JwfMgH3qvJDAS-98" value="" style="edgeStyle=orthogonalEdgeStyle;rounded=0;orthogonalLoop=1;jettySize=auto;html=1;" parent="WIyWlLk6GJQsqaUBKTNV-1" source="D7KvzW-JwfMgH3qvJDAS-40" target="D7KvzW-JwfMgH3qvJDAS-97" edge="1">
          <mxGeometry relative="1" as="geometry" />
        </mxCell>
        <mxCell id="D7KvzW-JwfMgH3qvJDAS-40" value="现场&lt;br&gt;测评" style="whiteSpace=wrap;html=1;aspect=fixed;fillColor=#f8cecc;strokeColor=#b85450;" parent="WIyWlLk6GJQsqaUBKTNV-1" vertex="1">
          <mxGeometry x="700" y="770" width="50" height="50" as="geometry" />
        </mxCell>
        <mxCell id="D7KvzW-JwfMgH3qvJDAS-41" value="题库&lt;br&gt;答题" style="whiteSpace=wrap;html=1;aspect=fixed;" parent="WIyWlLk6GJQsqaUBKTNV-1" vertex="1">
          <mxGeometry x="370" y="770" width="50" height="50" as="geometry" />
        </mxCell>
        <mxCell id="D7KvzW-JwfMgH3qvJDAS-55" value="" style="swimlane;startSize=0;movable=0;resizable=0;rotatable=0;deletable=0;editable=0;connectable=0;" parent="WIyWlLk6GJQsqaUBKTNV-1" vertex="1">
          <mxGeometry x="365" y="750" width="325" height="80" as="geometry">
            <mxRectangle x="365" y="760" width="50" height="40" as="alternateBounds" />
          </mxGeometry>
        </mxCell>
        <mxCell id="D7KvzW-JwfMgH3qvJDAS-59" value="" style="edgeStyle=orthogonalEdgeStyle;rounded=0;orthogonalLoop=1;jettySize=auto;html=1;" parent="WIyWlLk6GJQsqaUBKTNV-1" source="D7KvzW-JwfMgH3qvJDAS-58" target="D7KvzW-JwfMgH3qvJDAS-37" edge="1">
          <mxGeometry relative="1" as="geometry" />
        </mxCell>
        <mxCell id="D7KvzW-JwfMgH3qvJDAS-58" value="授课互动" style="ellipse;shape=cloud;whiteSpace=wrap;html=1;" parent="WIyWlLk6GJQsqaUBKTNV-1" vertex="1">
          <mxGeometry x="465" y="845" width="120" height="80" as="geometry" />
        </mxCell>
        <mxCell id="D7KvzW-JwfMgH3qvJDAS-67" value="" style="edgeStyle=orthogonalEdgeStyle;rounded=0;orthogonalLoop=1;jettySize=auto;html=1;" parent="WIyWlLk6GJQsqaUBKTNV-1" source="D7KvzW-JwfMgH3qvJDAS-64" target="D7KvzW-JwfMgH3qvJDAS-40" edge="1">
          <mxGeometry relative="1" as="geometry" />
        </mxCell>
        <mxCell id="D7KvzW-JwfMgH3qvJDAS-64" value="不要预先&lt;br&gt;创建试卷" style="ellipse;shape=cloud;whiteSpace=wrap;html=1;" parent="WIyWlLk6GJQsqaUBKTNV-1" vertex="1">
          <mxGeometry x="665" y="845" width="120" height="70" as="geometry" />
        </mxCell>
        <mxCell id="D7KvzW-JwfMgH3qvJDAS-70" value="" style="edgeStyle=orthogonalEdgeStyle;rounded=0;orthogonalLoop=1;jettySize=auto;html=1;" parent="WIyWlLk6GJQsqaUBKTNV-1" source="D7KvzW-JwfMgH3qvJDAS-68" target="D7KvzW-JwfMgH3qvJDAS-35" edge="1">
          <mxGeometry relative="1" as="geometry" />
        </mxCell>
        <mxCell id="D7KvzW-JwfMgH3qvJDAS-68" value="各种游戏" style="ellipse;shape=cloud;whiteSpace=wrap;html=1;" parent="WIyWlLk6GJQsqaUBKTNV-1" vertex="1">
          <mxGeometry x="270" y="850" width="120" height="70" as="geometry" />
        </mxCell>
        <mxCell id="D7KvzW-JwfMgH3qvJDAS-78" value="" style="edgeStyle=orthogonalEdgeStyle;rounded=0;orthogonalLoop=1;jettySize=auto;html=1;" parent="WIyWlLk6GJQsqaUBKTNV-1" source="D7KvzW-JwfMgH3qvJDAS-72" target="D7KvzW-JwfMgH3qvJDAS-77" edge="1">
          <mxGeometry relative="1" as="geometry" />
        </mxCell>
        <mxCell id="jYpraWL_3tG5w02lIEhH-2" value="" style="edgeStyle=orthogonalEdgeStyle;rounded=0;orthogonalLoop=1;jettySize=auto;html=1;" edge="1" parent="WIyWlLk6GJQsqaUBKTNV-1" source="D7KvzW-JwfMgH3qvJDAS-72" target="jYpraWL_3tG5w02lIEhH-0">
          <mxGeometry relative="1" as="geometry" />
        </mxCell>
        <mxCell id="D7KvzW-JwfMgH3qvJDAS-72" value="分组PK" style="whiteSpace=wrap;html=1;" parent="WIyWlLk6GJQsqaUBKTNV-1" vertex="1">
          <mxGeometry x="465" y="980" width="120" height="60" as="geometry" />
        </mxCell>
        <mxCell id="D7KvzW-JwfMgH3qvJDAS-77" value="活跃度排行" style="whiteSpace=wrap;html=1;" parent="WIyWlLk6GJQsqaUBKTNV-1" vertex="1">
          <mxGeometry x="650" y="980" width="120" height="60" as="geometry" />
        </mxCell>
        <mxCell id="D7KvzW-JwfMgH3qvJDAS-81" style="edgeStyle=orthogonalEdgeStyle;rounded=0;orthogonalLoop=1;jettySize=auto;html=1;exitX=0.5;exitY=0;exitDx=0;exitDy=0;entryX=0.5;entryY=1;entryDx=0;entryDy=0;" parent="WIyWlLk6GJQsqaUBKTNV-1" source="D7KvzW-JwfMgH3qvJDAS-79" target="D7KvzW-JwfMgH3qvJDAS-72" edge="1">
          <mxGeometry relative="1" as="geometry" />
        </mxCell>
        <mxCell id="D7KvzW-JwfMgH3qvJDAS-79" value="组队" style="whiteSpace=wrap;html=1;" parent="WIyWlLk6GJQsqaUBKTNV-1" vertex="1">
          <mxGeometry x="465" y="1080" width="120" height="60" as="geometry" />
        </mxCell>
        <mxCell id="D7KvzW-JwfMgH3qvJDAS-96" style="edgeStyle=orthogonalEdgeStyle;rounded=0;orthogonalLoop=1;jettySize=auto;html=1;exitX=0.5;exitY=1;exitDx=0;exitDy=0;" parent="WIyWlLk6GJQsqaUBKTNV-1" source="D7KvzW-JwfMgH3qvJDAS-90" target="D7KvzW-JwfMgH3qvJDAS-72" edge="1">
          <mxGeometry relative="1" as="geometry" />
        </mxCell>
        <mxCell id="D7KvzW-JwfMgH3qvJDAS-90" value="" style="swimlane;startSize=0;movable=0;resizable=0;rotatable=0;deletable=0;editable=0;connectable=0;" parent="WIyWlLk6GJQsqaUBKTNV-1" vertex="1">
          <mxGeometry x="250" y="560" width="665" height="370" as="geometry">
            <mxRectangle x="250" y="560" width="50" height="40" as="alternateBounds" />
          </mxGeometry>
        </mxCell>
        <mxCell id="D7KvzW-JwfMgH3qvJDAS-97" value="全是老师&lt;br&gt;评分怎么pk？" style="ellipse;shape=cloud;whiteSpace=wrap;html=1;fillColor=#f8cecc;strokeColor=#b85450;" parent="D7KvzW-JwfMgH3qvJDAS-90" vertex="1">
          <mxGeometry x="545" y="195" width="120" height="80" as="geometry" />
        </mxCell>
        <mxCell id="jYpraWL_3tG5w02lIEhH-0" value="PK结果的体现" style="ellipse;shape=cloud;whiteSpace=wrap;html=1;fillColor=#f8cecc;strokeColor=#b85450;" vertex="1" parent="WIyWlLk6GJQsqaUBKTNV-1">
          <mxGeometry x="280" y="970" width="120" height="80" as="geometry" />
        </mxCell>
        <mxCell id="jYpraWL_3tG5w02lIEhH-4" value="点上课" style="text;html=1;strokeColor=none;fillColor=none;align=center;verticalAlign=middle;whiteSpace=wrap;rounded=0;" vertex="1" parent="WIyWlLk6GJQsqaUBKTNV-1">
          <mxGeometry x="-50" y="400" width="60" height="30" as="geometry" />
        </mxCell>
      </root>
    </mxGraphModel>
  </diagram>
</mxfile>
